<svg width="106" height="69" viewBox="0 0 106 69" fill="none" xmlns="http://www.w3.org/2000/svg">
<path d="M17.1307 17C17.2074 16.1562 17.0028 15.4957 16.517 15.0185C16.0313 14.5327 15.2131 14.2898 14.0625 14.2898C13.3295 14.2898 12.7159 14.375 12.2216 14.5455C11.7358 14.7159 11.3565 14.9503 11.0838 15.2486C10.8196 15.5469 10.6534 15.892 10.5852 16.2841C10.5085 16.5909 10.5128 16.8722 10.598 17.1278C10.6918 17.375 10.8665 17.6009 11.1222 17.8054C11.3864 18.0099 11.7315 18.1932 12.1577 18.3551C12.5923 18.517 13.108 18.6619 13.7045 18.7898L15.75 19.25C17.1477 19.5568 18.3196 19.9616 19.2656 20.4645C20.2202 20.9588 20.9702 21.5469 21.5156 22.2287C22.0611 22.9105 22.419 23.6733 22.5895 24.517C22.7685 25.3608 22.7727 26.2812 22.6023 27.2784C22.3125 29 21.6435 30.4574 20.5952 31.6506C19.5469 32.8438 18.179 33.7514 16.4915 34.3736C14.804 34.9957 12.8523 35.3068 10.6364 35.3068C8.36932 35.3068 6.44318 34.9702 4.85795 34.2969C3.28125 33.6151 2.1392 32.5753 1.43182 31.1776C0.732955 29.7713 0.5625 27.9773 0.920455 25.7955H7.67045C7.56818 26.5966 7.65341 27.2699 7.92614 27.8153C8.19886 28.3608 8.63778 28.7741 9.2429 29.0554C9.84801 29.3366 10.6023 29.4773 11.5057 29.4773C12.2727 29.4773 12.929 29.3835 13.4744 29.196C14.0199 29.0085 14.4503 28.7486 14.7656 28.4162C15.081 28.0838 15.2727 27.7045 15.3409 27.2784C15.4091 26.8864 15.3409 26.5369 15.1364 26.2301C14.9318 25.9233 14.5611 25.6463 14.0241 25.3991C13.4872 25.152 12.75 24.9261 11.8125 24.7216L9.30682 24.1591C7.08239 23.6477 5.40341 22.804 4.26989 21.6278C3.13636 20.4517 2.7358 18.8409 3.06818 16.7955C3.34091 15.125 4.02699 13.6676 5.12642 12.4233C6.23438 11.1705 7.64062 10.1989 9.34517 9.50852C11.0582 8.80966 12.9545 8.46023 15.0341 8.46023C17.1477 8.46023 18.9162 8.81392 20.3395 9.52131C21.7713 10.2287 22.7983 11.2216 23.4205 12.5C24.0511 13.7784 24.2216 15.2784 23.9318 17H17.1307ZM33.0788 23.9545L31.2379 35H24.1811L28.5277 8.81818H35.3288L33.6413 19.0966H33.8459C34.4851 17.8437 35.38 16.8679 36.5305 16.169C37.6811 15.4616 38.9851 15.108 40.4425 15.108C41.8232 15.108 42.9737 15.4233 43.8942 16.054C44.8146 16.6847 45.4666 17.554 45.8501 18.6619C46.2337 19.7699 46.3061 21.0398 46.0675 22.4716L43.9709 35H36.9141L38.755 23.9545C38.9084 22.983 38.7848 22.2202 38.3842 21.6662C37.9922 21.1122 37.3487 20.8352 36.4538 20.8352C35.8743 20.8352 35.3459 20.9631 34.8686 21.2188C34.3999 21.4659 34.0078 21.8239 33.6925 22.2926C33.3857 22.7528 33.1811 23.3068 33.0788 23.9545ZM56.8125 35.358C54.6818 35.358 52.9261 34.9361 51.5455 34.0923C50.1733 33.2401 49.2102 32.0554 48.6562 30.5384C48.1023 29.0128 47.9915 27.2443 48.3239 25.233C48.6563 23.2216 49.3509 21.4574 50.4077 19.9403C51.4645 18.4148 52.8239 17.2301 54.4858 16.3864C56.1477 15.5341 58.0483 15.108 60.1875 15.108C62.3097 15.108 64.0568 15.5341 65.429 16.3864C66.8097 17.2301 67.777 18.4148 68.331 19.9403C68.8935 21.4574 69.0085 23.2216 68.6761 25.233C68.3438 27.2443 67.6449 29.0128 66.5795 30.5384C65.5142 32.0554 64.1506 33.2401 62.4886 34.0923C60.8352 34.9361 58.9432 35.358 56.8125 35.358ZM57.6818 30.142C58.2955 30.142 58.8537 29.9418 59.3565 29.5412C59.8679 29.1406 60.3026 28.5696 60.6605 27.8281C61.027 27.0866 61.2955 26.2045 61.4659 25.1818C61.6364 24.1506 61.6619 23.2685 61.5426 22.5355C61.4233 21.794 61.1761 21.223 60.8011 20.8224C60.4261 20.4219 59.9318 20.2216 59.3182 20.2216C58.7045 20.2216 58.142 20.4219 57.6307 20.8224C57.1193 21.223 56.6847 21.794 56.3267 22.5355C55.9688 23.2685 55.7045 24.1506 55.5341 25.1818C55.3636 26.2045 55.3338 27.0866 55.4446 27.8281C55.5639 28.5696 55.8111 29.1406 56.1861 29.5412C56.5696 29.9418 57.0682 30.142 57.6818 30.142ZM68.7273 42.3636L73.2528 15.3636H80.2585L79.696 18.7898H79.8494C80.2074 18.125 80.6761 17.5156 81.2557 16.9616C81.8438 16.3991 82.5341 15.9517 83.3267 15.6193C84.1278 15.2784 85.0142 15.108 85.9858 15.108C87.2813 15.108 88.4531 15.4531 89.5014 16.1435C90.5497 16.8338 91.321 17.9205 91.8153 19.4034C92.3097 20.8864 92.3608 22.8125 91.9688 25.1818C91.5938 27.4489 90.9247 29.3281 89.9616 30.8196C89.0071 32.3111 87.8821 33.4233 86.5866 34.1562C85.2997 34.8892 83.9574 35.2557 82.5597 35.2557C81.6392 35.2557 80.8423 35.1065 80.169 34.8082C79.4957 34.5014 78.9545 34.0881 78.5455 33.5682C78.1364 33.0398 77.8551 32.4432 77.7017 31.7784H77.5483L75.8097 42.3636H68.7273ZM78.5199 25.1818C78.3665 26.1364 78.3537 26.9631 78.4815 27.6619C78.6179 28.3523 78.8864 28.8892 79.2869 29.2727C79.696 29.6477 80.2244 29.8352 80.8722 29.8352C81.5199 29.8352 82.0994 29.652 82.6108 29.2855C83.1222 28.9105 83.5568 28.3778 83.9148 27.6875C84.2727 26.9886 84.5369 26.1534 84.7074 25.1818C84.8608 24.2102 84.8736 23.3793 84.7457 22.6889C84.6179 21.9901 84.358 21.4574 83.9659 21.0909C83.5739 20.7159 83.054 20.5284 82.4062 20.5284C81.7585 20.5284 81.1662 20.7159 80.6293 21.0909C80.1009 21.4574 79.6534 21.9901 79.2869 22.6889C78.929 23.3793 78.6733 24.2102 78.5199 25.1818Z" fill="white"/>
<path d="M0.0340909 64L2.93182 46.5455H7.63636L6.54545 53.1932H6.61364C6.85227 52.75 7.16761 52.3437 7.55966 51.9744C7.9517 51.5994 8.41193 51.3011 8.94034 51.0795C9.46875 50.8523 10.0568 50.7386 10.7045 50.7386C11.5682 50.7386 12.3494 50.9688 13.0483 51.429C13.7528 51.8892 14.267 52.6136 14.5909 53.6023C14.9205 54.5909 14.9545 55.875 14.6932 57.4545C14.4432 58.9659 14 60.2187 13.3636 61.2131C12.7273 62.2074 11.9773 62.9489 11.1136 63.4375C10.25 63.9261 9.35227 64.1705 8.42045 64.1705C7.80682 64.1705 7.27557 64.071 6.8267 63.8722C6.38352 63.6676 6.02273 63.392 5.74432 63.0455C5.47159 62.6932 5.28409 62.2955 5.18182 61.8523H5.04545L4.70455 64H0.0340909ZM5.72727 57.4545C5.625 58.0909 5.61932 58.642 5.71023 59.108C5.80114 59.5682 5.98011 59.9261 6.24716 60.1818C6.5142 60.4318 6.86364 60.5568 7.29545 60.5568C7.72727 60.5568 8.11648 60.4347 8.46307 60.1903C8.80966 59.9403 9.10227 59.5852 9.34091 59.125C9.57955 58.6591 9.75 58.1023 9.85227 57.4545C9.95455 56.8068 9.96307 56.2528 9.87784 55.7926C9.79261 55.3267 9.61932 54.9716 9.35795 54.7273C9.09659 54.4773 8.75 54.3523 8.31818 54.3523C7.88636 54.3523 7.49432 54.4773 7.14205 54.7273C6.78977 54.9716 6.49148 55.3267 6.24716 55.7926C6.00284 56.2528 5.82955 56.8068 5.72727 57.4545ZM17.2351 68.9091C16.6896 68.9091 16.1811 68.8665 15.7095 68.7812C15.2379 68.7017 14.826 68.5909 14.4737 68.4489L16.0589 65.108C16.4226 65.2443 16.7578 65.3324 17.0646 65.3722C17.3771 65.4119 17.6527 65.3892 17.8913 65.304C18.13 65.2188 18.326 65.0568 18.4794 64.8182L18.6328 64.5795L16.2976 50.9091H21.0362L21.6328 59.9773H21.7692L25.4339 50.9091H30.5476L23.4226 65.0909C23.0589 65.8125 22.6044 66.4602 22.0589 67.0341C21.5192 67.6136 20.8544 68.071 20.0646 68.4062C19.2749 68.7415 18.3317 68.9091 17.2351 68.9091ZM37.3146 46.5455H43.2124L45.6328 56.4318H45.8374L51.5305 46.5455H57.4283L54.5305 64H49.8942L51.5646 53.9091H51.4283L45.9055 63.8636H43.1101L40.8942 53.8409H40.7578L39.0533 64H34.4169L37.3146 46.5455ZM56.8445 64L59.0263 50.9091H63.7308L61.549 64H56.8445ZM61.5831 49.5455C60.9467 49.5455 60.4325 49.3352 60.0405 48.9148C59.6484 48.4886 59.5036 47.983 59.6058 47.3977C59.7081 46.8011 60.0206 46.2955 60.5433 45.8807C61.0661 45.4602 61.6456 45.25 62.282 45.25C62.924 45.25 63.4354 45.4602 63.8161 45.8807C64.1967 46.2955 64.3388 46.8011 64.2422 47.3977C64.1513 47.983 63.8445 48.4886 63.3217 48.9148C62.8047 49.3352 62.2251 49.5455 61.5831 49.5455ZM77.3438 55.1705H73.1165C73.1392 54.8977 73.0909 54.6648 72.9716 54.4716C72.8523 54.2784 72.6847 54.1307 72.4688 54.0284C72.2585 53.9261 72.0199 53.875 71.7528 53.875C71.2869 53.875 70.8636 53.9801 70.483 54.1903C70.1023 54.3949 69.8892 54.6648 69.8438 55C69.8153 55.1307 69.858 55.2528 69.9716 55.3665C70.0852 55.4801 70.3835 55.5852 70.8665 55.6818L73.4574 56.1591C74.7528 56.3977 75.696 56.8324 76.2869 57.4631C76.8835 58.0881 77.0994 58.9148 76.9347 59.9432C76.7813 60.8352 76.3892 61.6023 75.7585 62.2443C75.1278 62.8864 74.3267 63.3807 73.3551 63.7273C72.3892 64.0682 71.321 64.2386 70.1506 64.2386C68.0881 64.2386 66.5426 63.8267 65.5142 63.0028C64.4915 62.179 64.0256 61.1023 64.1165 59.7727H68.6847C68.696 60.1989 68.8381 60.5199 69.1108 60.7358C69.3892 60.946 69.7585 61.0568 70.2188 61.0682C70.7188 61.0852 71.1562 60.9858 71.5312 60.7699C71.9062 60.5483 72.1165 60.2727 72.1619 59.9432C72.179 59.7557 72.0966 59.6136 71.9148 59.517C71.7386 59.4205 71.4006 59.3239 70.9006 59.2273L68.6506 58.8182C67.3551 58.5852 66.4119 58.1193 65.821 57.4205C65.2301 56.7159 65.0256 55.8182 65.2074 54.7273C65.3551 53.858 65.7074 53.1278 66.2642 52.5369C66.8267 51.946 67.5653 51.5 68.4801 51.1989C69.3949 50.892 70.4517 50.7386 71.6506 50.7386C73.6108 50.7386 75.0938 51.1335 76.0994 51.9233C77.1108 52.7074 77.5256 53.7898 77.3438 55.1705ZM91.4531 55.1705H87.2259C87.2486 54.8977 87.2003 54.6648 87.081 54.4716C86.9616 54.2784 86.794 54.1307 86.5781 54.0284C86.3679 53.9261 86.1293 53.875 85.8622 53.875C85.3963 53.875 84.973 53.9801 84.5923 54.1903C84.2116 54.3949 83.9986 54.6648 83.9531 55C83.9247 55.1307 83.9673 55.2528 84.081 55.3665C84.1946 55.4801 84.4929 55.5852 84.9759 55.6818L87.5668 56.1591C88.8622 56.3977 89.8054 56.8324 90.3963 57.4631C90.9929 58.0881 91.2088 58.9148 91.044 59.9432C90.8906 60.8352 90.4986 61.6023 89.8679 62.2443C89.2372 62.8864 88.4361 63.3807 87.4645 63.7273C86.4986 64.0682 85.4304 64.2386 84.2599 64.2386C82.1974 64.2386 80.652 63.8267 79.6236 63.0028C78.6009 62.179 78.1349 61.1023 78.2259 59.7727H82.794C82.8054 60.1989 82.9474 60.5199 83.2202 60.7358C83.4986 60.946 83.8679 61.0568 84.3281 61.0682C84.8281 61.0852 85.2656 60.9858 85.6406 60.7699C86.0156 60.5483 86.2259 60.2727 86.2713 59.9432C86.2884 59.7557 86.206 59.6136 86.0241 59.517C85.848 59.4205 85.5099 59.3239 85.0099 59.2273L82.7599 58.8182C81.4645 58.5852 80.5213 58.1193 79.9304 57.4205C79.3395 56.7159 79.1349 55.8182 79.3168 54.7273C79.4645 53.858 79.8168 53.1278 80.3736 52.5369C80.9361 51.946 81.6747 51.5 82.5895 51.1989C83.5043 50.892 84.5611 50.7386 85.7599 50.7386C87.7202 50.7386 89.2031 51.1335 90.2088 51.9233C91.2202 52.7074 91.6349 53.7898 91.4531 55.1705ZM102.153 50.9091L101.574 54.3182H92.9489L93.5284 50.9091H102.153ZM95.7102 47.7727H100.415L98.4205 59.7898C98.392 59.9716 98.3977 60.125 98.4375 60.25C98.4773 60.3693 98.5568 60.4602 98.6761 60.5227C98.8011 60.5795 98.9659 60.608 99.1705 60.608C99.3068 60.608 99.4744 60.5909 99.6733 60.5568C99.8722 60.517 100.023 60.4886 100.125 60.4716L100.261 63.7784C100.023 63.8466 99.7017 63.9233 99.2983 64.0085C98.9006 64.0994 98.4375 64.1591 97.9091 64.1875C96.8068 64.2386 95.9091 64.1222 95.2159 63.8381C94.5284 63.554 94.0511 63.1108 93.7841 62.5085C93.5227 61.9006 93.4773 61.142 93.6477 60.233L95.7102 47.7727Z" fill="#FFD951"/>
<path d="M91.5666 7.25946L93.9768 2.60243C94.2495 2.06508 94.9147 1.84382 95.4709 2.11776C95.6891 2.22313 95.8636 2.40224 95.9726 2.61297L98.2411 7.10142C98.4265 7.45965 98.7864 7.71252 99.2008 7.7652L103.956 8.31309C104.599 8.39738 105.068 8.96634 104.992 9.59851C104.959 9.85138 104.839 10.0937 104.643 10.2834L100.88 13.8868C100.728 14.0237 100.662 14.2345 100.684 14.4452L101.306 19.3024C101.404 19.9978 100.891 20.6405 100.182 20.7248C99.9097 20.7564 99.637 20.7037 99.3971 20.5773L95.4273 18.47C95.1438 18.3225 94.7948 18.312 94.5003 18.4595L90.3888 20.5141C89.8108 20.7986 89.1019 20.5773 88.8074 20.0083C88.6874 19.7976 88.6547 19.5553 88.6874 19.3235L89.0146 17.0898C89.1782 15.994 89.8762 15.0563 90.8795 14.5506L95.4491 12.2853C95.5691 12.222 95.6127 12.0745 95.5582 11.9586C95.5037 11.8638 95.4055 11.8111 95.2965 11.8322L89.7126 12.6119C88.8619 12.7278 87.9895 12.496 87.3242 11.9586L85.4593 10.4836C84.9249 10.0621 84.8485 9.3035 85.2739 8.77668C85.4811 8.54489 85.7646 8.38684 86.0809 8.3447L90.8577 7.74413C91.1631 7.71252 91.4248 7.52287 91.5666 7.25946Z" fill="url(#paint0_linear_20_17)"/>
<g filter="url(#filter0_i_20_17)">
<path d="M91.5666 7.25946L93.9768 2.60243C94.2495 2.06508 94.9147 1.84382 95.4709 2.11776C95.6891 2.22313 95.8636 2.40224 95.9726 2.61297L98.2411 7.10142C98.4265 7.45965 98.7864 7.71252 99.2008 7.7652L103.956 8.31309C104.599 8.39738 105.068 8.96634 104.992 9.59851C104.959 9.85138 104.839 10.0937 104.643 10.2834L100.88 13.8868C100.728 14.0237 100.662 14.2345 100.684 14.4452L101.306 19.3024C101.404 19.9978 100.891 20.6405 100.182 20.7248C99.9097 20.7564 99.637 20.7037 99.3971 20.5773L95.4273 18.4701C95.1438 18.3225 94.7948 18.312 94.5003 18.4595L90.3888 20.5141C89.8108 20.7986 89.1019 20.5773 88.8074 20.0083C88.6874 19.7976 88.6547 19.5553 88.6874 19.3235L89.0146 17.0898C89.1782 15.994 89.8762 15.0563 90.8795 14.5506L95.4491 12.2853C95.5691 12.222 95.6127 12.0745 95.5582 11.9586C95.5037 11.8638 95.4055 11.8111 95.2965 11.8322L89.7126 12.6119C88.8619 12.7278 87.9895 12.496 87.3242 11.9586L85.4593 10.4836C84.9249 10.0621 84.8485 9.3035 85.2739 8.77669C85.4811 8.54489 85.7646 8.38684 86.0809 8.3447L90.8577 7.74413C91.1631 7.71252 91.4248 7.52287 91.5666 7.25946Z" fill="#FFD951"/>
</g>
<path d="M91.5666 7.25946L93.9768 2.60243C94.2495 2.06508 94.9147 1.84382 95.4709 2.11776C95.6891 2.22313 95.8636 2.40224 95.9726 2.61297L98.2411 7.10142C98.4265 7.45965 98.7864 7.71252 99.2008 7.7652L103.956 8.31309C104.599 8.39738 105.068 8.96634 104.992 9.59851C104.959 9.85138 104.839 10.0937 104.643 10.2834L100.88 13.8868C100.728 14.0237 100.662 14.2345 100.684 14.4452L101.306 19.3024C101.404 19.9978 100.891 20.6405 100.182 20.7248C99.9097 20.7564 99.637 20.7037 99.3971 20.5773L95.4273 18.4701C95.1438 18.3225 94.7948 18.312 94.5003 18.4595L90.3888 20.5141C89.8108 20.7986 89.1019 20.5773 88.8074 20.0083C88.6874 19.7976 88.6547 19.5553 88.6874 19.3235L89.0146 17.0898C89.1782 15.994 89.8762 15.0563 90.8795 14.5506L95.4491 12.2853C95.5691 12.222 95.6127 12.0745 95.5582 11.9586C95.5037 11.8638 95.4055 11.8111 95.2965 11.8322L89.7126 12.6119C88.8619 12.7278 87.9895 12.496 87.3242 11.9586L85.4593 10.4836C84.9249 10.0621 84.8485 9.3035 85.2739 8.77668C85.4811 8.54489 85.7646 8.38684 86.0809 8.3447L90.8577 7.74413C91.1631 7.71252 91.4248 7.52287 91.5666 7.25946Z" stroke="url(#paint1_linear_20_17)" stroke-width="0.89"/>
<defs>
<filter id="filter0_i_20_17" x="85" y="2" width="21" height="19.7338" filterUnits="userSpaceOnUse" color-interpolation-filters="sRGB">
<feFlood flood-opacity="0" result="BackgroundImageFix"/>
<feBlend mode="normal" in="SourceGraphic" in2="BackgroundImageFix" result="shape"/>
<feColorMatrix in="SourceAlpha" type="matrix" values="0 0 0 0 0 0 0 0 0 0 0 0 0 0 0 0 0 0 127 0" result="hardAlpha"/>
<feOffset dx="1" dy="1"/>
<feGaussianBlur stdDeviation="2"/>
<feComposite in2="hardAlpha" operator="arithmetic" k2="-1" k3="1"/>
<feColorMatrix type="matrix" values="0 0 0 0 1 0 0 0 0 1 0 0 0 0 1 0 0 0 0.657 0"/>
<feBlend mode="normal" in2="shape" result="effect1_innerShadow_20_17"/>
</filter>
<linearGradient id="paint0_linear_20_17" x1="585" y1="17.4554" x2="1480.6" y2="2067.53" gradientUnits="userSpaceOnUse">
<stop stop-color="#FFD951"/>
<stop offset="1" stop-color="#FFB222"/>
</linearGradient>
<linearGradient id="paint1_linear_20_17" x1="1085" y1="2" x2="1085" y2="1871.63" gradientUnits="userSpaceOnUse">
<stop stop-color="#E58F0D"/>
<stop offset="0.9996" stop-color="#EB7915"/>
</linearGradient>
</defs>
</svg>
