<svg width="51" height="51" viewBox="0 0 51 51" fill="none" xmlns="http://www.w3.org/2000/svg">
<rect x="50.0425" y="50" width="50" height="50" rx="25" transform="rotate(179.951 50.0425 50)" fill="white" fill-opacity="0.52"/>
<path d="M37.7289 25.7176C38.1191 25.3267 38.1186 24.6936 37.7277 24.3034L31.3584 17.9448C30.9675 17.5546 30.3343 17.5552 29.9442 17.946C29.554 18.3369 29.5545 18.97 29.9454 19.3602L35.607 25.0123L29.955 30.6739C29.5648 31.0648 29.5653 31.698 29.9562 32.0882C30.347 32.4784 30.9802 32.4778 31.3704 32.087L37.7289 25.7176ZM13.0212 25.0315L13.0221 26.0315L37.0221 26.0111L37.0212 25.0111L37.0204 24.0111L13.0204 24.0315L13.0212 25.0315Z" fill="black"/>
</svg>
